<?xml version="1.0" encoding="UTF-8" standalone="no"?>
<svg
   xmlns:dc="http://purl.org/dc/elements/1.1/"
   xmlns:cc="http://creativecommons.org/ns#"
   xmlns:rdf="http://www.w3.org/1999/02/22-rdf-syntax-ns#"
   xmlns:svg="http://www.w3.org/2000/svg"
   xmlns="http://www.w3.org/2000/svg"
   xmlns:sodipodi="http://sodipodi.sourceforge.net/DTD/sodipodi-0.dtd"
   xmlns:inkscape="http://www.inkscape.org/namespaces/inkscape"
   width="849"
   height="1191"
   version="1.1"
   id="svg4"
   sodipodi:docname="logo.svg"
   inkscape:version="0.92.4 (5da689c313, 2019-01-14)">
  <metadata
     id="metadata10">
    <rdf:RDF>
      <cc:Work
         rdf:about="">
        <dc:format>image/svg+xml</dc:format>
        <dc:type
           rdf:resource="http://purl.org/dc/dcmitype/StillImage" />
        <dc:title></dc:title>
      </cc:Work>
    </rdf:RDF>
  </metadata>
  <defs
     id="defs8" />
  <sodipodi:namedview
     pagecolor="#ffffff"
     bordercolor="#666666"
     borderopacity="1"
     objecttolerance="10"
     gridtolerance="10"
     guidetolerance="10"
     inkscape:pageopacity="0"
     inkscape:pageshadow="2"
     inkscape:window-width="1920"
     inkscape:window-height="1017"
     id="namedview6"
     showgrid="false"
     inkscape:zoom="0.59277918"
     inkscape:cx="343.3228"
     inkscape:cy="604.20436"
     inkscape:window-x="-8"
     inkscape:window-y="-8"
     inkscape:window-maximized="1"
     inkscape:current-layer="svg4" />
  <path
     d="M 658.056,26.793 C 441.94,204.65 316.516,330.402 316.516,330.402 L 253.903,281.85 241.67,294.757 325.318,375.433 331.18,381.018 416.326,295.421 403.419,282.514 344.02,344.02 c 0,0 126.12,-129.23 330.402,-330.402 z M 404.754,411.517 c -2.316,0.309 -5.27,1.237 -8.224,2.474 l -47.086,19.748 c -35.215,14.793 -66.69,33.565 -94.394,56.702 l -45.719,38.257 -34.87,41.921 c -21.996,26.505 -35.524,53.01 -35.524,53.01 l -0.309,0.309 -18.82,24.994 c -30.609,40.684 -40.684,86.91 -40.684,86.91 L 118.816,836.16 v 4.63 l 25.602,17.279 26.505,0.618 6.48,5.554 13.885,2.777 12.034,22.834 8.639,26.536 21.289,37.336 29.313,29.313 c 0,0 23.143,15.118 48.441,20.057 l 30.547,4.319 33.016,1.234 16.353,-1.234 22.834,-11.417 28.079,-22.834 14.81,-17.588 33.634,-51.776 c 0,0 21.905,-34.561 46.286,-65.456 22.834,-29.004 46.595,-53.385 46.595,-53.385 l 39.495,-36.41 c 27.153,-25.003 54.306,-43.81 81.459,-56.393 l 50.294,-22.834 c 0,0 19.439,-8.022 34.252,-12.341 l 0.926,-0.308 -25.92,-19.13 z m 83.923,101.514 c -2.16,0.926 -4.628,2.16 -7.097,3.394 -26.505,13.252 -54.914,30.856 -84.232,52.753 -29.318,21.905 -61.09,48.132 -61.09,48.132 l -39.495,36.409 c 0,0 -23.756,24.381 -46.595,53.385 -24.381,30.895 -46.286,65.456 -46.286,65.456 l -33.634,51.776 -14.81,17.588 -28.079,22.834 -22.834,11.417 -16.353,1.234 -33.016,-1.234 -30.547,-4.319 c -25.298,-4.939 -48.441,-20.057 -48.441,-20.057 l -29.313,-29.313 -21.289,-37.336 -8.639,-26.536 -12.034,-22.834 -13.885,-2.777 -6.48,-5.554 -26.505,-0.618 -25.602,-17.279 V 836.16 l 0.308,-0.308 c 0,0 10.075,-56.161 40.684,-96.845 l 18.82,-24.994 0.309,-0.309 c 0,0 13.528,-26.505 35.524,-53.01 l 34.87,-41.921 45.719,-38.257 c 27.704,-23.137 59.179,-41.909 94.394,-56.702 l 47.086,-19.748 c 2.954,-1.237 5.908,-2.16 8.224,-2.474 l -4.011,-3.085 z M 597.23,564.09 c -56.772,25.307 -114.78,61.708 -154.557,100.895 -34.88,34.252 -59.865,71.278 -59.865,71.278 l -33.325,48.75 -43.193,52.753 -30.856,29.931 -22.834,16.662 -17.588,9.565 -15.429,4.011 25.92,19.13 -0.926,0.308 c 14.813,4.319 34.252,12.341 34.252,12.341 l 50.294,22.834 c 27.153,12.583 54.306,31.39 81.459,56.393 l 39.495,36.41 c 0,0 31.772,26.227 61.09,48.132 29.318,21.896 57.727,39.5 84.232,52.753 2.469,1.234 4.937,2.468 7.097,3.394 l 4.011,3.085 -4.011,-3.085 c 2.16,0.926 4.628,2.16 7.097,3.394 26.505,13.252 54.914,30.856 84.232,52.753 29.318,21.905 61.09,48.132 61.09,48.132 l 39.495,36.409 c 0,0 23.756,24.381 46.595,53.385 24.381,30.895 46.286,65.456 46.286,65.456 l 33.634,51.776 14.81,17.588 28.079,22.834 22.834,11.417 16.353,1.234 33.016,-1.234 30.547,-4.319 c 25.298,-4.939 48.441,-20.057 48.441,-20.057 l 29.313,-29.313 21.289,-37.336 8.639,-26.536 12.034,-22.834 13.885,-2.777 6.48,-5.554 26.505,-0.618 25.602,-17.279 V 1104.93 l -0.308,-0.308 c 0,0 10.075,-56.161 40.684,-96.845 l 18.82,-24.994 0.309,-0.309 c 0,0 13.528,-26.505 35.524,-53.01 l 34.87,-41.921 45.719,-38.257 c 27.704,-23.137 59.179,-41.909 94.394,-56.702 l 47.086,-19.748 c 2.954,-1.237 5.908,-2.16 8.224,-2.474 l 3.394,-2.474 -3.394,2.474 c -56.772,25.307 -114.78,61.708 -154.557,100.895 -34.88,34.252 -59.865,71.278 -59.865,71.278 l -33.325,48.75 -43.193,52.753 -30.856,29.931 -22.834,16.662 -17.588,9.565 -15.429,4.011 25.92,19.13 -0.926,0.308 c 14.813,4.319 34.252,12.341 34.252,12.341 l 50.294,22.834 c 27.153,12.583 54.306,31.39 81.459,56.393 l 39.495,36.41 c 0,0 31.772,26.227 61.09,48.132 29.318,21.896 57.727,39.5 84.232,52.753 2.469,1.234 4.937,2.468 7.097,3.394 l 3.394,2.474 -3.394,-2.474 c 2.16,0.926 4.628,2.16 7.097,3.394 26.505,13.252 54.914,30.856 84.232,52.753 29.318,21.905 61.09,48.132 61.09,48.132 l 39.495,36.409 c 0,0 23.756,24.381 46.595,53.385 24.381,30.895 46.286,65.456 46.286,65.456 l 33.634,51.776 14.81,17.588 28.079,22.834 22.834,11.417 16.353,1.234 33.016,-1.234 30.547,-4.319 c 25.298,-4.939 48.441,-20.057 48.441,-20.057 l 29.313,-29.313 21.289,-37.336 8.639,-26.536 12.034,-22.834 13.885,-2.777 6.48,-5.554 26.505,-0.618 25.602,-17.279 v -0.617 l -0.308,-0.308 c 0,0 10.075,-56.161 40.684,-96.845 l 18.82,-24.994 0.309,-0.309 c 0,0 13.528,-26.505 35.524,-53.01 l 34.87,-41.921 45.719,-38.257 c 27.704,-23.137 59.179,-41.909 94.394,-56.702 l 47.086,-19.748 c 2.954,-1.237 5.908,-2.16 8.224,-2.474 l 2.474,-1.851 -2.474,1.851 c -41.921,-3.703 -82.384,-15.736 -120.309,-34.561 -40.073,-20.057 -77.42,-46.595 -109.81,-77.42 -32.39,-30.826 -58.038,-65.425 -76.494,-101.826 -16.044,-32.088 -25.298,-65.116 -27.462,-97.771 -2.163,-32.655 2.163,-65.73 13.252,-96.536 11.089,-30.806 28.388,-58.318 50.603,-81.459 22.215,-23.141 48.75,-41.002 78.038,-53.076 29.288,-12.074 59.179,-18.205 87.528,-17.588 32.39,0.617 62.909,8.331 90.304,22.215 27.395,13.884 51.157,33.325 70.033,56.702 l 4.319,5.554 -12.341,8.331 -6.171,-6.788 c -16.971,-19.439 -38.257,-34.252 -62.909,-43.81 -24.652,-9.556 -51.157,-13.252 -78.347,-11.725 -27.19,1.527 -53.695,8.949 -78.038,21.608 -24.343,12.659 -46.286,30.263 -64.441,51.467 -18.155,21.204 -32.088,45.688 -40.684,72.204 -8.596,26.515 -11.725,53.99 -9.256,80.533 2.469,26.545 10.493,52.431 23.451,75.877 12.958,23.446 30.547,44.732 51.467,62.592 20.92,17.86 44.453,32.088 69.107,42.23 z"
     style="fill:currentColor"
     id="path2" />
</svg>

    